Coordinates
version=1
nRows=13
nColumns=34
inDegrees=yes

Units are S.I. units (second, meters, Newtons, ...)
If the header above contains a line with 'inDegrees', this indicates whether rotational values are in degrees (yes) or radians (no).

endheader
time	pelvis_tilt	pelvis_list	pelvis_rotation	pelvis_tx	pelvis_ty	pelvis_tz	hip_flexion_r	hip_adduction_r	hip_rotation_r	knee_angle_r	ankle_angle_r	subtalar_angle_r	mtp_angle_r	hip_flexion_l	hip_adduction_l	hip_rotation_l	knee_angle_l	ankle_angle_l	subtalar_angle_l	mtp_angle_l	lumbar_extension	lumbar_bending	lumbar_rotation	arm_flex_r	arm_add_r	arm_rot_r	elbow_flex_r	pro_sup_r	arm_flex_l	arm_add_l	arm_rot_l	elbow_flex_l	pro_sup_l
     10.95000000	      1.01612058	      0.40489456	    170.08503936	     -2.72058477	      0.90907875	     -0.92649356	     24.14397744	     -0.92327741	    -12.69692027	    124.17304831	    -10.07315880	    -14.29941147	      0.00000000	     17.90283809	      9.86821438	      0.10365912	     32.51527673	     18.46796910	      1.49579957	      0.00000000	    -42.74446637	     -2.61772824	     -1.01029687	     16.17827994	    -13.64689200	      5.02946334	     93.35020130	     96.09798588	     23.77065089	    -11.03506849	    -13.71032188	     80.72721933	     83.11874052
     10.96666670	      0.24990093	     -1.02229707	    173.85726521	     -2.77236117	      0.91074360	     -0.93394528	     32.19843305	     -6.02792858	    -11.38969980	    127.74961430	     -7.14844664	    -12.14949503	      0.00000000	     12.54586694	     10.77464709	     -0.12046141	     33.32930080	     22.52820556	      2.68776163	      0.00000000	    -43.50889117	     -1.89070239	     -5.94514985	      5.04993448	    -13.04941212	     -1.14480161	     92.38123466	     96.03644481	     33.70610887	    -12.03767353	     -4.84835126	     81.95254840	     77.96333041
     10.98333330	     -0.12318178	     -0.87187798	    176.82733411	     -2.82342025	      0.91830457	     -0.94206284	     39.41907751	     -9.58238833	     -9.71170346	    127.10571962	     -3.60879119	    -12.23722518	      0.00000000	      6.82515081	      9.01770809	     -1.52249961	     32.12053570	     25.01599201	      3.63878531	      0.00000000	    -43.60894263	      0.16917756	    -11.76092756	     -2.39779321	    -12.94006345	     -3.05584615	     88.78754736	     95.19838123	     42.27981544	    -13.91551094	      0.08650159	     83.35151237	     75.03699048
     11.00000000	      0.56088503	      1.55567322	    178.40910337	     -2.87368521	      0.92814882	     -0.95154384	     45.68242956	     -9.56985551	     -9.20665843	    121.76777400	     -2.04443684	    -15.56201373	      0.00000000	      2.52129278	      4.64805862	     -3.82796786	     29.70902359	     24.74297640	      3.55284226	      0.00000000	    -43.71177058	      3.59562202	    -14.07125977	     -9.06361849	    -13.99206708	     -4.56178228	     87.23057379	     94.31414312	     48.85227616	    -15.20382879	      3.22024324	     87.97504037	     73.63423412
     11.01666670	      2.76881319	      5.22001083	    178.27247026	     -2.92490316	      0.93778526	     -0.96244669	     51.26681331	     -6.18961675	     -9.35371796	    112.98939330	     -3.68796279	    -20.36641497	      0.00000000	      0.36493704	     -0.49146871	     -6.09785571	     27.10315734	     22.64235341	      2.98013638	      0.00000000	    -42.94653814	      7.21515935	    -13.47018174	    -15.16683425	    -14.85930432	     -6.28075174	     87.45292603	     94.03202792	     51.09631768	    -16.39248982	      5.98854688	     97.26640852	     73.81398900
     11.03333330	      5.51094356	      8.88588836	    176.91130015	     -2.98024142	      0.94564172	     -0.97412835	     55.05752420	     -1.03011635	     -9.47639158	    102.52504922	     -5.79805212	    -25.73729667	      0.00000000	     -1.31427169	     -5.07491585	     -7.76202167	     24.55439661	     19.77736165	      2.85881168	      0.00000000	    -41.82681096	     10.48573786	    -11.71995583	    -20.62792934	    -14.68768898	     -8.44755439	     88.95341706	     94.38341269	     48.76071305	    -17.96449704	     10.18634202	    110.43479069	     75.37288160
     11.05000000	      7.69775434	     11.84742865	    175.73176201	     -3.04035005	      0.94880625	     -0.98503637	     57.69638306	      3.88928206	     -9.43351125	     91.73946129	     -6.20488915	    -30.29314815	      0.00000000	     -4.04567698	     -8.60482512	     -8.43237400	     21.99288340	     16.24779912	      2.87709301	      0.00000000	    -40.50195068	     13.57228714	    -11.08674009	    -24.55015222	    -13.97093516	     -9.78618088	     90.80117979	     95.82117949	     44.56266412	    -20.05885062	     15.84183716	    122.28888203	     78.82715295
     11.06666670	      8.98022571	     13.12220021	    176.38806779	     -3.10412847	      0.94468941	     -0.99403261	     60.47922284	      6.23717510	     -8.82965559	     81.76763961	     -4.31345871	    -32.54195969	      0.00000000	     -7.72694216	    -10.22035000	     -7.09380359	     19.38859019	     11.96809978	      2.77826352	      0.00000000	    -38.17718922	     15.93221033	    -12.71298097	    -27.39340493	    -13.17914549	    -11.02128622	     91.61140765	     97.50508797	     41.41390980	    -21.32612660	     23.31258537	    126.84102183	     82.62037025
     11.08333330	      9.34911248	     13.09353432	    179.03183648	     -3.17154718	      0.93939301	     -1.00291524	     62.35575986	      6.13082187	     -7.56474212	     71.85949504	     -2.18373371	    -32.09676374	      0.00000000	    -12.14468741	    -10.96901743	     -5.68973565	     16.54562308	      6.61611100	      3.06062715	      0.00000000	    -34.76249438	     17.79825369	    -15.25799823	    -30.74573264	    -10.89054301	    -14.08479421	     91.91950472	    104.20196760	     41.14862006	    -21.26441165	     28.46317267	    124.63887881	     94.83450071
     11.10000000	      9.67028198	     11.77477785	    182.45315166	     -3.24258184	      0.93926635	     -1.01363422	     62.40934406	      4.52720490	     -5.05854629	     61.80939043	     -1.87465564	    -30.97288909	      0.00000000	    -15.96046518	    -10.78615774	     -3.85685272	     14.21984585	     -0.84989885	      2.11191809	      0.00000000	    -30.56836785	     18.49403270	    -20.60794635	    -31.43536304	     -9.91061982	    -14.97638994	     89.79135579	    104.64733723	     39.33396708	    -22.63431509	     29.49518390	    123.58206088	     95.74706150
     11.11666670	      9.37605433	      9.48143084	    185.01094344	     -3.31461618	      0.94610740	     -1.02692578	     59.42170953	      2.96006968	     -1.93495630	     51.97802197	     -2.01844238	    -29.05813895	      0.00000000	    -19.19090488	     -9.65359939	     -2.59383935	     14.77034741	     -8.55430020	     -0.70104754	      0.00000000	    -27.16239457	     16.95328445	    -25.03254362	    -30.77369282	     -8.98516066	    -15.38698430	     85.93600688	    105.04958855	     36.36332275	    -24.25527674	     30.10152055	    122.37713963	     96.64073881
     11.13333330	      8.17039470	      6.21296216	    185.86355529	     -3.38332203	      0.95505335	     -1.04117497	     54.05357632	      1.68229800	      1.64244956	     42.90996645	     -2.84211784	    -26.89684452	      0.00000000	    -21.50314687	     -7.00864484	     -0.86724355	     20.18079533	    -14.49872349	     -6.45162506	      0.00000000	    -25.75338378	     13.45553370	    -27.55913110	    -28.78128125	     -8.30081154	    -15.09208864	     81.51642094	    105.37981749	     32.34402630	    -26.34352287	     30.97660637	    123.52170328	     97.62151025
     11.15000000	      6.09930042	      2.39210729	    184.99696570	     -3.44460272	      0.96250389	     -1.05423984	     47.42340803	      0.25103941	      4.88053085	     34.63519700	     -3.51074386	    -23.96717512	      0.00000000	    -22.31334322	     -2.62155125	      1.42114224	     31.08350945	    -17.52511308	    -13.01062422	      0.00000000	    -26.42947537	      8.98920654	    -28.16548080	    -25.31906136	     -8.04068782	    -14.01834390	     77.38516946	    105.64098700	     28.51110485	    -28.82500051	     31.98623569	    125.12180527	     98.74638674
